<svg xmlns="http://www.w3.org/2000/svg" viewBox="0 0 24 24" fill="none" stroke="currentColor">
  <path d="M12 15.5A3.5 3.5 0 1 0 12 8.5a3.5 3.5 0 0 0 0 7z" stroke-width="1.5"/>
  <path d="M19.4 15a1 1 0 0 0 .2 1.1l.9.9-1.4 1.4-.9-.9a1 1 0 0 0-1.1-.2 7.8 7.8 0 0 1-2 .4 7.8 7.8 0 0 1-2-.4 1 1 0 0 0-1.1.2l-.9.9L6.5 17l.9-.9a1 1 0 0 0 .2-1.1 7.8 7.8 0 0 1-.4-2 7.8 7.8 0 0 1 .4-2 1 1 0 0 0-.2-1.1L6.2 7.9 7.6 6.5l.9.9a1 1 0 0 0 1.1.2c.6-.2 1.2-.4 2-.4.8 0 1.4.1 2 .4a1 1 0 0 0 1.1-.2l.9-.9L17.5 6.5l-.9.9a1 1 0 0 0-.2 1.1c.2.6.4 1.2.4 2 0 .8-.1 1.4-.4 2z" stroke-width="1.2"/>
</svg>